<?xml version="1.0" standalone="no"?>
<!DOCTYPE svg PUBLIC "-//W3C//DTD SVG 20010904//EN"
 "http://www.w3.org/TR/2001/REC-SVG-20010904/DTD/svg10.dtd">
<svg version="1.0" xmlns="http://www.w3.org/2000/svg"
 width="177.000000pt" height="47.000000pt" viewBox="0 0 177.000000 47.000000"
 preserveAspectRatio="xMidYMid meet">

<g transform="translate(0.000000,47.000000) scale(0.100000,-0.100000)"
fill="#000000" stroke="none">
<path d="M0 235 l0 -235 885 0 885 0 0 235 0 235 -885 0 -885 0 0 -235z m204
113 c8 14 38 7 79 -17 36 -22 47 -44 28 -55 -5 -4 -7 3 -4 14 3 11 0 20 -6 20
-16 0 -13 -31 5 -51 39 -43 -27 -87 -111 -75 -47 8 -79 34 -69 60 3 9 10 16
15 16 5 0 9 13 9 29 0 16 7 34 15 41 8 7 12 17 8 24 -4 6 0 5 9 -2 9 -7 19 -9
22 -4z m650 -17 c3 -5 -4 -12 -17 -15 -20 -6 -20 -7 -4 -17 21 -12 22 -29 2
-29 -11 0 -15 -11 -15 -40 0 -22 -4 -40 -10 -40 -5 0 -10 18 -10 39 0 22 -5
41 -11 43 -8 3 -8 11 2 28 21 38 50 52 63 31z m86 0 c0 -5 -7 -12 -17 -15 -14
-6 -14 -8 3 -21 18 -13 18 -14 2 -20 -13 -5 -18 -18 -18 -47 0 -50 -23 -47
-28 3 -2 19 -8 39 -12 44 -6 7 0 21 16 38 24 26 54 36 54 18z m600 -67 l0 -75
-46 3 c-56 4 -73 23 -58 65 7 20 17 29 37 31 21 3 27 9 27 28 0 17 5 24 20 24
18 0 20 -7 20 -76z m-902 47 c3 -10 -1 -12 -18 -8 -49 13 -81 -29 -54 -70 13
-21 21 -24 46 -19 21 4 28 2 26 -7 -8 -22 -65 -20 -87 2 -46 46 -11 125 51
119 17 -2 34 -9 36 -17z m662 3 c0 -11 -6 -14 -20 -9 -28 9 -50 -11 -50 -45 0
-34 22 -54 50 -45 14 5 20 2 20 -9 0 -12 -10 -16 -37 -16 -44 0 -56 6 -72 37
-16 31 -14 47 10 77 16 20 29 26 60 26 29 0 39 -4 39 -16z m-558 -31 c20 -18
24 -63 6 -81 -20 -20 -65 -14 -82 10 -21 30 -20 44 4 68 24 24 47 25 72 3z
m290 5 c8 -7 18 -21 21 -30 5 -15 0 -18 -34 -18 -28 0 -39 -4 -36 -12 2 -7 18
-12 36 -11 20 0 31 -3 28 -10 -2 -7 -19 -12 -37 -12 -27 0 -38 6 -49 26 -13
24 -13 29 2 53 19 28 44 33 69 14z m119 2 c10 -6 19 -20 19 -30 0 -16 -7 -20
-36 -20 -41 0 -44 -24 -3 -27 42 -2 44 -3 29 -13 -57 -37 -119 32 -73 82 18
20 36 23 64 8z m257 -12 c7 -7 12 -24 12 -38 0 -34 -17 -50 -55 -50 -38 0 -55
16 -55 50 0 34 17 50 55 50 17 0 36 -5 43 -12z m240 0 c7 -7 12 -20 12 -30 0
-13 -8 -18 -31 -18 -18 0 -28 -4 -24 -10 4 -6 15 -8 26 -5 13 4 19 2 19 -9 0
-11 -10 -16 -33 -16 -40 0 -57 15 -57 50 0 33 17 50 50 50 14 0 31 -5 38 -12z"/>
<path d="M181 319 c-34 -13 -20 -21 39 -23 56 -2 72 7 41 23 -24 13 -48 13
-80 0z"/>
<path d="M1474 255 c-8 -20 3 -48 16 -40 13 8 13 55 0 55 -6 0 -13 -7 -16 -15z"/>
<path d="M693 273 c-18 -7 -16 -52 3 -60 23 -9 51 23 38 44 -12 19 -23 24 -41
16z"/>
<path d="M985 270 c-4 -6 6 -10 22 -10 22 0 25 2 13 10 -19 12 -27 12 -35 0z"/>
<path d="M1105 270 c-3 -5 3 -10 15 -10 12 0 18 5 15 10 -3 6 -10 10 -15 10
-5 0 -12 -4 -15 -10z"/>
<path d="M1354 256 c-8 -21 3 -49 16 -41 5 3 10 15 10 25 0 25 -18 36 -26 16z"/>
<path d="M1600 260 c0 -5 5 -10 10 -10 6 0 10 5 10 10 0 6 -4 10 -10 10 -5 0
-10 -4 -10 -10z"/>
</g>
</svg>
